<?xml version="1.0" encoding="UTF-8"?>
<svg xmlns="http://www.w3.org/2000/svg" xmlns:xlink="http://www.w3.org/1999/xlink" xmlns:svgjs="http://svgjs.com/svgjs" version="1.1" width="512" height="512" x="0" y="0" viewBox="0 0 512 512" style="enable-background:new 0 0 512 512" xml:space="preserve" class="">
  <g>
    <g xmlns="http://www.w3.org/2000/svg" id="XMLID_947_">
      <g id="XMLID_335_">
        <path id="XMLID_363_" d="m346.369 381.847 43.079-92.213c21.426-45.862 17.989-98.736-9.194-141.438-27.184-42.702-73.634-68.196-124.254-68.196s-97.07 25.494-124.253 68.196c-27.184 42.702-30.62 95.577-9.194 141.438l43.079 92.213c-6.013 5.49-9.792 13.388-9.792 22.153 0 7.678 2.902 14.688 7.664 20-4.761 5.312-7.664 12.322-7.664 20 0 16.542 13.458 30 30 30h23.216c4.614 21.683 23.906 38 46.945 38s42.331-16.317 46.945-38h23.216c16.542 0 30-13.458 30-30 0-7.678-2.902-14.688-7.664-20 4.761-5.312 7.664-12.322 7.664-20-.001-8.765-3.78-16.663-9.793-22.153zm-162.329-7.847-43.367-92.83c-18.517-39.635-15.546-85.33 7.945-122.234 23.492-36.904 63.635-58.936 107.382-58.936s83.89 22.032 107.382 58.936c23.491 36.904 26.462 82.599 7.946 122.233l-43.368 92.831h-37.96v-84h14c18.748 0 34-15.252 34-34s-15.252-34-34-34-34 15.252-34 34v14h-28v-14c0-18.748-15.252-34-34-34s-34 15.252-34 34 15.252 34 34 34h14v84zm37.96-104h-14c-7.72 0-14-6.28-14-14s6.28-14 14-14 14 6.28 14 14zm20 20h28v84h-28zm48-20v-14c0-7.72 6.28-14 14-14s14 6.28 14 14-6.28 14-14 14zm-34 222c-11.917 0-22.112-7.486-26.147-18h52.294c-4.035 10.514-14.23 18-26.147 18zm70.161-38h-140.322c-5.514 0-10-4.486-10-10s4.486-10 10-10h25.161c5.522 0 10-4.477 10-10s-4.478-10-10-10h-25.161c-5.514 0-10-4.486-10-10s4.486-10 10-10h140.322c5.514 0 10 4.486 10 10s-4.486 10-10 10h-25.161c-5.522 0-10 4.477-10 10s4.478 10 10 10h25.161c5.514 0 10 4.486 10 10s-4.486 10-10 10z" fill="#2f89fc" data-original="#000000" style="" class=""/>
        <path id="XMLID_372_" d="m256 60c5.522 0 10-4.477 10-10v-40c0-5.523-4.478-10-10-10s-10 4.477-10 10v40c0 5.523 4.478 10 10 10z" fill="#2f89fc" data-original="#000000" style="" class=""/>
        <path id="XMLID_373_" d="m116.737 111.932c1.953 1.953 4.512 2.929 7.071 2.929s5.118-.976 7.071-2.929c3.905-3.905 3.905-10.237 0-14.143l-28.284-28.284c-3.906-3.905-10.236-3.905-14.143 0-3.905 3.905-3.905 10.237 0 14.143z" fill="#2f89fc" data-original="#000000" style="" class=""/>
        <path id="XMLID_374_" d="m69.127 227.127h-40c-5.522 0-10 4.477-10 10s4.478 10 10 10h40c5.522 0 10-4.477 10-10s-4.478-10-10-10z" fill="#2f89fc" data-original="#000000" style="" class=""/>
        <path id="XMLID_375_" d="m116.916 362.248-28.284 28.284c-3.905 3.905-3.905 10.237 0 14.143 1.953 1.953 4.512 2.929 7.071 2.929s5.118-.976 7.071-2.929l28.284-28.284c3.905-3.905 3.905-10.237 0-14.143-3.906-3.906-10.236-3.906-14.142 0z" fill="#2f89fc" data-original="#000000" style="" class=""/>
        <path id="XMLID_376_" d="m409.404 69.505-28.284 28.285c-3.905 3.905-3.905 10.237 0 14.143 1.953 1.953 4.512 2.929 7.071 2.929s5.118-.976 7.071-2.929l28.284-28.284c3.905-3.905 3.905-10.237 0-14.143s-10.235-3.906-14.142-.001z" fill="#2f89fc" data-original="#000000" style="" class=""/>
        <path id="XMLID_377_" d="m482.873 227.127h-40c-5.522 0-10 4.477-10 10s4.478 10 10 10h40c5.522 0 10-4.477 10-10s-4.477-10-10-10z" fill="#2f89fc" data-original="#000000" style="" class=""/>
        <path id="XMLID_378_" d="m395.084 362.248c-3.906-3.905-10.236-3.905-14.143 0-3.905 3.905-3.905 10.237 0 14.143l28.284 28.284c1.953 1.953 4.512 2.929 7.071 2.929s5.118-.976 7.071-2.929c3.905-3.905 3.905-10.237 0-14.143z" fill="#2f89fc" data-original="#000000" style="" class=""/>
        <path id="XMLID_379_" d="m256 414c-2.63 0-5.21 1.07-7.07 2.93s-2.93 4.44-2.93 7.07 1.069 5.21 2.93 7.07 4.44 2.93 7.07 2.93 5.21-1.07 7.069-2.93c1.86-1.86 2.931-4.44 2.931-7.07s-1.07-5.21-2.931-7.07c-1.859-1.86-4.439-2.93-7.069-2.93z" fill="#2f89fc" data-original="#000000" style="" class=""/>
      </g>
    </g>
  </g>
</svg>
